<?xml version="1.0" standalone="no"?>
<svg width="1056" height="816" xmlns="http://www.w3.org/2000/svg" id="svgvm8"><g transform="translate(5,5)" style="font-family: sans-serif;"><g><g transform="translate(0, 0)"><g transform="translate(0,5)"><rect class="header-box" width="251.56962025316454" height="86" stroke="black" fill="white" rx="5"/><rect class="label-cover" x="8" y="-10" width="34.03125" height="18" fill="white" rx="5"/><text class="header-box-label" x="10" font-size="12" fill="black" y="3">about</text><g class="header-box-content" fill="black" transform="translate(5, 0)"><g transform="translate(0, 4.095238095238102)"><text font-size="12"><tspan x="4" y="42.4047619047619">Protection Layer</tspan></text></g></g></g></g><g transform="translate(264.8101265822785, 0)"><g transform="translate(0,5)"><rect class="header-box" width="251.56962025316454" height="86" stroke="black" fill="white" rx="5"/><rect class="label-cover" x="8" y="-10" width="43.359375" height="18" fill="white" rx="5"/><text class="header-box-label" x="10" font-size="12" fill="black" y="3">domain</text><g class="header-box-content" fill="black" transform="translate(5, 0)"><g transform="translate(0, 4.095238095238102)"><text font-size="12"><tspan x="4" y="42.4047619047619">Enterprise ATT&amp;CK v15</tspan></text></g></g></g></g><g transform="translate(529.620253164557, 0)"><g transform="translate(0,5)"><rect class="header-box" width="251.56962025316454" height="86" stroke="black" fill="white" rx="5"/><rect class="label-cover" x="8" y="-10" width="53.3515625" height="18" fill="white" rx="5"/><text class="header-box-label" x="10" font-size="12" fill="black" y="3">platforms</text><g class="header-box-content" fill="black" transform="translate(5, 0)"><g transform="translate(0, 4.095238095238102)"><text font-size="12"><tspan x="4" y="42.4047619047619">Azure AD</tspan></text></g></g></g></g><g transform="translate(794.4303797468355, 0)"><g transform="translate(0,5)"><rect class="header-box" width="251.56962025316454" height="86" stroke="black" fill="white" rx="5"/><rect class="label-cover" x="8" y="-10" width="40.0390625" height="18" fill="white" rx="5"/><text class="header-box-label" x="10" font-size="12" fill="black" y="3">legend</text><g class="header-box-content" fill="black" transform="translate(5, 0)"><g transform="translate(0, 4.095238095238102)"><g transform="translate(0, 5)"><g class="legendCells"><g class="cell" transform="translate(0,0)"><rect class="swatch" height="15" width="40.26160337552742" style="fill: rgb(214, 230, 247);"/><text class="label" transform="translate(20.130802154541016,&#10;          25)" style="text-anchor: middle;">0.0</text></g><g class="cell" transform="translate(40.26160430908203,0)"><rect class="swatch" height="15" width="40.26160337552742" style="fill: rgb(154, 191, 249);"/><text class="label" transform="translate(20.130802154541016,&#10;          25)" style="text-anchor: middle;">3.0</text></g><g class="cell" transform="translate(80.52320861816406,0)"><rect class="swatch" height="15" width="40.26160337552742" style="fill: rgb(95, 152, 251);"/><text class="label" transform="translate(20.130802154541016,&#10;          25)" style="text-anchor: middle;">6.0</text></g><g class="cell" transform="translate(120.7848129272461,0)"><rect class="swatch" height="15" width="40.26160337552742" style="fill: rgb(52, 118, 251);"/><text class="label" transform="translate(20.130802154541016,&#10;          25)" style="text-anchor: middle;">9.0</text></g><g class="cell" transform="translate(161.04641723632812,0)"><rect class="swatch" height="15" width="40.26160337552742" style="fill: rgb(26, 89, 250);"/><text class="label" transform="translate(20.130802154541016,&#10;          25)" style="text-anchor: middle;">12</text></g><g class="cell" transform="translate(201.30802154541016,0)"><rect class="swatch" height="15" width="40.26160337552742" style="fill: rgb(0, 60, 249);"/><text class="label" transform="translate(20.130802154541016,&#10;          25)" style="text-anchor: middle;">15</text></g></g></g></g></g></g></g></g><g transform="translate(0,97)"><g><g class="tactic initial-access" transform="translate(0, 0)"><g class="techniques"><g class="technique T1078" transform="translate(0, 78.88888888888889)"><rect class="cell" height="78.88888888888889" width="130.75" fill="#72a5fa" stroke="#6B7279"/><polygon class="sidebar" transform="translate(0, 78.88888888888889)" points="0,0 12,0 12,12" fill="#6B7279" visibility="hidden"/><text font-size="12" fill="black"><tspan x="4" y="42.94444444444444">Valid Accounts</tspan></text></g></g><g class="subtechniques"/><g class="tactic-label"><text font-size="12" fill="black" font-weight="bold"><tspan text-anchor="middle" x="65.375" y="42.94444444444444">Initial Access</tspan></text></g></g><g class="tactic execution" transform="translate(130.75, 0)"><g class="techniques"><g class="technique T1059" transform="translate(0, 78.88888888888889)"><rect class="cell" height="78.88888888888889" width="130.75" fill="#bdbdbd" stroke="#6B7279"/><polygon class="sidebar" transform="translate(0, 78.88888888888889)" points="0,0 12,0 12,12" fill="#6B7279" visibility="hidden"/><text font-size="12" fill="black"><tspan x="4" y="28.277777777777775">Command</tspan><tspan x="4" y="42.94444444444444">and Scripting</tspan><tspan x="4" y="57.61111111111111">Interpreter</tspan></text></g></g><g class="subtechniques"/><g class="tactic-label"><text font-size="12" fill="black" font-weight="bold"><tspan text-anchor="middle" x="65.375" y="42.94444444444444">Execution</tspan></text></g></g><g class="tactic persistence" transform="translate(261.5, 0)"><g class="techniques"><g class="technique T1098" transform="translate(0, 78.88888888888889)"><rect class="cell" height="78.88888888888889" width="130.75" fill="#99bef9" stroke="#6B7279"/><polygon class="sidebar" transform="translate(0, 78.88888888888889)" points="0,0 12,0 12,12" fill="#6B7279" visibility="hidden"/><text font-size="12" fill="black"><tspan x="4" y="35.69444444444444">Account</tspan><tspan x="4" y="50.19444444444444">Manipulation</tspan></text></g><g class="technique T1136" transform="translate(0, 157.77777777777777)"><rect class="cell" height="78.88888888888889" width="130.75" fill="#ffffff" stroke="#6B7279"/><polygon class="sidebar" transform="translate(0, 78.88888888888889)" points="0,0 12,0 12,12" fill="#6B7279" visibility="hidden"/><text font-size="12" fill="#000000"><tspan x="4" y="42.94444444444444">Create Account</tspan></text></g><g class="technique T1556" transform="translate(0, 236.66666666666666)"><rect class="cell" height="78.88888888888889" width="130.75" fill="#c1d8f8" stroke="#6B7279"/><polygon class="sidebar" transform="translate(0, 78.88888888888889)" points="0,0 12,0 12,12" fill="#6B7279" visibility="hidden"/><text font-size="12" fill="black"><tspan x="4" y="28.277777777777775">Modify</tspan><tspan x="4" y="42.94444444444444">Authentication</tspan><tspan x="4" y="57.61111111111111">Process</tspan></text></g><g class="technique T1078" transform="translate(0, 315.55555555555554)"><rect class="cell" height="78.88888888888889" width="130.75" fill="#72a5fa" stroke="#6B7279"/><polygon class="sidebar" transform="translate(0, 78.88888888888889)" points="0,0 12,0 12,12" fill="#6B7279" visibility="hidden"/><text font-size="12" fill="black"><tspan x="4" y="42.94444444444444">Valid Accounts</tspan></text></g></g><g class="subtechniques"/><g class="tactic-label"><text font-size="12" fill="black" font-weight="bold"><tspan text-anchor="middle" x="65.375" y="42.94444444444444">Persistence</tspan></text></g></g><g class="tactic privilege-escalation" transform="translate(392.25, 0)"><g class="techniques"><g class="technique T1548" transform="translate(0, 78.88888888888889)"><rect class="cell" height="78.88888888888889" width="130.75" fill="#ffffff" stroke="#6B7279"/><polygon class="sidebar" transform="translate(0, 78.88888888888889)" points="0,0 12,0 12,12" fill="#6B7279" visibility="hidden"/><text font-size="12" fill="#000000"><tspan x="4" y="20.819444444444443">Abuse</tspan><tspan x="4" y="35.56944444444444">Elevation</tspan><tspan x="4" y="50.31944444444444">Control</tspan><tspan x="4" y="65.06944444444444">Mechanism</tspan></text></g><g class="technique T1098" transform="translate(0, 157.77777777777777)"><rect class="cell" height="78.88888888888889" width="130.75" fill="#99bef9" stroke="#6B7279"/><polygon class="sidebar" transform="translate(0, 78.88888888888889)" points="0,0 12,0 12,12" fill="#6B7279" visibility="hidden"/><text font-size="12" fill="black"><tspan x="4" y="35.69444444444444">Account</tspan><tspan x="4" y="50.19444444444444">Manipulation</tspan></text></g><g class="technique T1484" transform="translate(0, 236.66666666666666)"><rect class="cell" height="78.88888888888889" width="130.75" fill="#ffffff" stroke="#6B7279"/><polygon class="sidebar" transform="translate(0, 78.88888888888889)" points="0,0 12,0 12,12" fill="#6B7279" visibility="hidden"/><text font-size="12" fill="#000000"><tspan x="4" y="28.277777777777775">Domain or</tspan><tspan x="4" y="42.94444444444444">Tenant Policy</tspan><tspan x="4" y="57.61111111111111">Modification</tspan></text></g><g class="technique T1078" transform="translate(0, 315.55555555555554)"><rect class="cell" height="78.88888888888889" width="130.75" fill="#72a5fa" stroke="#6B7279"/><polygon class="sidebar" transform="translate(0, 78.88888888888889)" points="0,0 12,0 12,12" fill="#6B7279" visibility="hidden"/><text font-size="12" fill="black"><tspan x="4" y="42.94444444444444">Valid Accounts</tspan></text></g></g><g class="subtechniques"/><g class="tactic-label"><text font-size="12" fill="black" font-weight="bold"><tspan text-anchor="middle" x="65.375" y="35.69444444444444">Privilege</tspan><tspan text-anchor="middle" x="65.375" y="50.19444444444444">Escalation</tspan></text></g></g><g class="tactic defense-evasion" transform="translate(523, 0)"><g class="techniques"><g class="technique T1548" transform="translate(0, 78.88888888888889)"><rect class="cell" height="78.88888888888889" width="130.75" fill="#ffffff" stroke="#6B7279"/><polygon class="sidebar" transform="translate(0, 78.88888888888889)" points="0,0 12,0 12,12" fill="#6B7279" visibility="hidden"/><text font-size="12" fill="#000000"><tspan x="4" y="20.819444444444443">Abuse</tspan><tspan x="4" y="35.56944444444444">Elevation</tspan><tspan x="4" y="50.31944444444444">Control</tspan><tspan x="4" y="65.06944444444444">Mechanism</tspan></text></g><g class="technique T1484" transform="translate(0, 157.77777777777777)"><rect class="cell" height="78.88888888888889" width="130.75" fill="#ffffff" stroke="#6B7279"/><polygon class="sidebar" transform="translate(0, 78.88888888888889)" points="0,0 12,0 12,12" fill="#6B7279" visibility="hidden"/><text font-size="12" fill="#000000"><tspan x="4" y="28.277777777777775">Domain or</tspan><tspan x="4" y="42.94444444444444">Tenant Policy</tspan><tspan x="4" y="57.61111111111111">Modification</tspan></text></g><g class="technique T1556" transform="translate(0, 236.66666666666666)"><rect class="cell" height="78.88888888888889" width="130.75" fill="#c1d8f8" stroke="#6B7279"/><polygon class="sidebar" transform="translate(0, 78.88888888888889)" points="0,0 12,0 12,12" fill="#6B7279" visibility="hidden"/><text font-size="12" fill="black"><tspan x="4" y="28.277777777777775">Modify</tspan><tspan x="4" y="42.94444444444444">Authentication</tspan><tspan x="4" y="57.61111111111111">Process</tspan></text></g><g class="technique T1078" transform="translate(0, 315.55555555555554)"><rect class="cell" height="78.88888888888889" width="130.75" fill="#72a5fa" stroke="#6B7279"/><polygon class="sidebar" transform="translate(0, 78.88888888888889)" points="0,0 12,0 12,12" fill="#6B7279" visibility="hidden"/><text font-size="12" fill="black"><tspan x="4" y="42.94444444444444">Valid Accounts</tspan></text></g></g><g class="subtechniques"/><g class="tactic-label"><text font-size="12" fill="black" font-weight="bold"><tspan text-anchor="middle" x="65.375" y="35.69444444444444">Defense</tspan><tspan text-anchor="middle" x="65.375" y="50.19444444444444">Evasion</tspan></text></g></g><g class="tactic credential-access" transform="translate(653.75, 0)"><g class="techniques"><g class="technique T1110" transform="translate(0, 78.88888888888889)"><rect class="cell" height="78.88888888888889" width="130.75" fill="#0845f9" stroke="#6B7279"/><polygon class="sidebar" transform="translate(0, 78.88888888888889)" points="0,0 12,0 12,12" fill="#6B7279" visibility="hidden"/><text font-size="12" fill="white"><tspan x="4" y="42.94444444444444">Brute Force</tspan></text></g><g class="technique T1212" transform="translate(0, 157.77777777777777)"><rect class="cell" height="78.88888888888889" width="130.75" fill="#ffffff" stroke="#6B7279"/><polygon class="sidebar" transform="translate(0, 78.88888888888889)" points="0,0 12,0 12,0" fill="#6B7279" visibility="hidden"/><text font-size="12" fill="#000000"><tspan x="4" y="28.277777777777775">Exploitation</tspan><tspan x="4" y="42.94444444444444">for Credential</tspan><tspan x="4" y="57.61111111111111">Access</tspan></text></g><g class="technique T1606" transform="translate(0, 236.66666666666666)"><rect class="cell" height="78.88888888888889" width="130.75" fill="#ffffff" stroke="#6B7279"/><polygon class="sidebar" transform="translate(0, 78.88888888888889)" points="0,0 12,0 12,12" fill="#6B7279" visibility="hidden"/><text font-size="12" fill="#000000"><tspan x="4" y="35.69444444444444">Forge Web</tspan><tspan x="4" y="50.19444444444444">Credentials</tspan></text></g><g class="technique T1556" transform="translate(0, 315.55555555555554)"><rect class="cell" height="78.88888888888889" width="130.75" fill="#c1d8f8" stroke="#6B7279"/><polygon class="sidebar" transform="translate(0, 78.88888888888889)" points="0,0 12,0 12,12" fill="#6B7279" visibility="hidden"/><text font-size="12" fill="black"><tspan x="4" y="28.277777777777775">Modify</tspan><tspan x="4" y="42.94444444444444">Authentication</tspan><tspan x="4" y="57.61111111111111">Process</tspan></text></g><g class="technique T1621" transform="translate(0, 394.44444444444446)"><rect class="cell" height="78.88888888888889" width="130.75" fill="#ffffff" stroke="#6B7279"/><polygon class="sidebar" transform="translate(0, 78.88888888888889)" points="0,0 12,0 12,0" fill="#6B7279" visibility="hidden"/><text font-size="12" fill="#000000"><tspan x="4" y="20.819444444444443">Multi-Factor</tspan><tspan x="4" y="35.56944444444444">Authentication</tspan><tspan x="4" y="50.31944444444444">Request</tspan><tspan x="4" y="65.06944444444444">Generation</tspan></text></g><g class="technique T1528" transform="translate(0, 473.3333333333333)"><rect class="cell" height="78.88888888888889" width="130.75" fill="#72a5fa" stroke="#6B7279"/><polygon class="sidebar" transform="translate(0, 78.88888888888889)" points="0,0 12,0 12,0" fill="#6B7279" visibility="hidden"/><text font-size="12" fill="black"><tspan x="4" y="28.277777777777775">Steal</tspan><tspan x="4" y="42.94444444444444">Application</tspan><tspan x="4" y="57.61111111111111">Access Token</tspan></text></g><g class="technique T1649" transform="translate(0, 552.2222222222223)"><rect class="cell" height="78.88888888888889" width="130.75" fill="#ffffff" stroke="#6B7279"/><polygon class="sidebar" transform="translate(0, 78.88888888888889)" points="0,0 12,0 12,0" fill="#6B7279" visibility="hidden"/><text font-size="12" fill="#000000"><tspan x="4" y="28.277777777777775">Steal or Forge</tspan><tspan x="4" y="42.94444444444444">Authentication</tspan><tspan x="4" y="57.61111111111111">Certificates</tspan></text></g><g class="technique T1552" transform="translate(0, 631.1111111111111)"><rect class="cell" height="78.88888888888889" width="130.75" fill="#c1d8f8" stroke="#6B7279"/><polygon class="sidebar" transform="translate(0, 78.88888888888889)" points="0,0 12,0 12,0" fill="#6B7279" visibility="hidden"/><text font-size="12" fill="black"><tspan x="4" y="35.69444444444444">Unsecured</tspan><tspan x="4" y="50.19444444444444">Credentials</tspan></text></g></g><g class="subtechniques"/><g class="tactic-label"><text font-size="12" fill="black" font-weight="bold"><tspan text-anchor="middle" x="65.375" y="35.69444444444444">Credential</tspan><tspan text-anchor="middle" x="65.375" y="50.19444444444444">Access</tspan></text></g></g><g class="tactic discovery" transform="translate(784.5, 0)"><g class="techniques"><g class="technique T1087" transform="translate(0, 78.88888888888889)"><rect class="cell" height="78.88888888888889" width="130.75" fill="#c1d8f8" stroke="#6B7279"/><polygon class="sidebar" transform="translate(0, 78.88888888888889)" points="0,0 12,0 12,12" fill="#6B7279" visibility="hidden"/><text font-size="12" fill="black"><tspan x="4" y="35.69444444444444">Account</tspan><tspan x="4" y="50.19444444444444">Discovery</tspan></text></g><g class="technique T1538" transform="translate(0, 157.77777777777777)"><rect class="cell" height="78.88888888888889" width="130.75" fill="#ffffff" stroke="#6B7279"/><polygon class="sidebar" transform="translate(0, 78.88888888888889)" points="0,0 12,0 12,0" fill="#6B7279" visibility="hidden"/><text font-size="12" fill="#000000"><tspan x="4" y="35.69444444444444">Cloud Service</tspan><tspan x="4" y="50.19444444444444">Dashboard</tspan></text></g><g class="technique T1526" transform="translate(0, 236.66666666666666)"><rect class="cell" height="78.88888888888889" width="130.75" fill="#99bef9" stroke="#6B7279"/><polygon class="sidebar" transform="translate(0, 78.88888888888889)" points="0,0 12,0 12,0" fill="#6B7279" visibility="hidden"/><text font-size="12" fill="black"><tspan x="4" y="35.69444444444444">Cloud Service</tspan><tspan x="4" y="50.19444444444444">Discovery</tspan></text></g><g class="technique T1069" transform="translate(0, 315.55555555555554)"><rect class="cell" height="78.88888888888889" width="130.75" fill="#bdbdbd" stroke="#6B7279"/><polygon class="sidebar" transform="translate(0, 78.88888888888889)" points="0,0 12,0 12,12" fill="#6B7279" visibility="hidden"/><text font-size="12" fill="black"><tspan x="4" y="28.277777777777775">Permission</tspan><tspan x="4" y="42.94444444444444">Groups</tspan><tspan x="4" y="57.61111111111111">Discovery</tspan></text></g></g><g class="subtechniques"/><g class="tactic-label"><text font-size="12" fill="black" font-weight="bold"><tspan text-anchor="middle" x="65.375" y="42.94444444444444">Discovery</tspan></text></g></g><g class="tactic impact" transform="translate(915.25, 0)"><g class="techniques"><g class="technique T1499" transform="translate(0, 78.88888888888889)"><rect class="cell" height="78.88888888888889" width="130.75" fill="#ffffff" stroke="#6B7279"/><polygon class="sidebar" transform="translate(0, 78.88888888888889)" points="0,0 12,0 12,12" fill="#6B7279" visibility="hidden"/><text font-size="12" fill="#000000"><tspan x="4" y="28.277777777777775">Endpoint</tspan><tspan x="4" y="42.94444444444444">Denial</tspan><tspan x="4" y="57.61111111111111">of Service</tspan></text></g><g class="technique T1498" transform="translate(0, 157.77777777777777)"><rect class="cell" height="78.88888888888889" width="130.75" fill="#ffffff" stroke="#6B7279"/><polygon class="sidebar" transform="translate(0, 78.88888888888889)" points="0,0 12,0 12,12" fill="#6B7279" visibility="hidden"/><text font-size="12" fill="#000000"><tspan x="4" y="35.69444444444444">Network Denial</tspan><tspan x="4" y="50.19444444444444">of Service</tspan></text></g></g><g class="subtechniques"/><g class="tactic-label"><text font-size="12" fill="black" font-weight="bold"><tspan text-anchor="middle" x="65.375" y="42.94444444444444">Impact</tspan></text></g></g></g></g></g></svg>