<svg width="624" height="482" xmlns="http://www.w3.org/2000/svg" xmlns:xlink="http://www.w3.org/1999/xlink" xml:space="preserve" overflow="hidden"><g><g><path d="M145.646 0C147.277 -5.24635e-16 148.599 1.3223 148.599 2.95343L148.599 47.8456C148.599 49.4767 147.277 50.799 145.646 50.799L2.95344 50.799C1.3223 50.799 4.22492e-06 49.4767 4.22492e-06 47.8456L4.22492e-06 2.95343C4.22492e-06 1.3223 1.3223 -5.24635e-16 2.95344 -5.24635e-16Z" stroke="#000000" stroke-width="0.590686" stroke-linecap="butt" stroke-linejoin="miter" stroke-miterlimit="4" stroke-opacity="1" fill="#FFFFFF" fill-rule="nonzero" fill-opacity="1" transform="matrix(1.00038 0 0 1 2.95455 5.90686)"/><path d="M21.8738-5.90686C23.505-5.90686 24.8273-4.58457 24.8273-2.95343L24.8273 1.77206C24.8273 3.40319 23.505 4.72549 21.8738 4.72549L7.67892 4.72549C6.04779 4.72549 4.72549 3.40319 4.72549 1.77206L4.72549-2.95343C4.72549-4.58457 6.04779-5.90686 7.67892-5.90686Z" fill="#FFFFFF" fill-rule="nonzero" fill-opacity="1" transform="matrix(1.00038 0 0 1 2.95455 5.90686)"/><text fill="#000000" fill-opacity="1" font-family="Arial,Arial_MSFontService,sans-serif" font-style="normal" font-variant="normal" font-weight="400" font-stretch="normal" font-size="12" text-anchor="start" direction="ltr" writing-mode="lr-tb" unicode-bidi="normal" text-decoration="none" transform="matrix(0.590909 0 0 0.590686 8.86364 8)">about</text><text fill="#000000" fill-opacity="1" font-family="Arial,Arial_MSFontService,sans-serif" font-style="normal" font-variant="normal" font-weight="400" font-stretch="normal" font-size="12" text-anchor="start" direction="ltr" writing-mode="lr-tb" unicode-bidi="normal" text-decoration="none" transform="matrix(0.590909 0 0 0.590686 8.27273 33)">Protection Layer</text><path d="M145.646 0C147.277 -5.24635e-16 148.599 1.3223 148.599 2.95343L148.599 47.8456C148.599 49.4767 147.277 50.799 145.646 50.799L2.95344 50.799C1.3223 50.799 4.22492e-06 49.4767 4.22492e-06 47.8456L4.22492e-06 2.95343C4.22492e-06 1.3223 1.3223 -5.24635e-16 2.95344 -5.24635e-16Z" stroke="#000000" stroke-width="0.590686" stroke-linecap="butt" stroke-linejoin="miter" stroke-miterlimit="4" stroke-opacity="1" fill="#FFFFFF" fill-rule="nonzero" fill-opacity="1" transform="matrix(1.00038 0 0 1 159.433 5.90686)"/><path d="M27.3839-5.90686C29.015-5.90686 30.3373-4.58457 30.3373-2.95343L30.3373 1.77206C30.3373 3.40319 29.015 4.72549 27.3839 4.72549L7.67892 4.72549C6.04779 4.72549 4.72549 3.40319 4.72549 1.77206L4.72549-2.95343C4.72549-4.58457 6.04779-5.90686 7.67892-5.90686Z" fill="#FFFFFF" fill-rule="nonzero" fill-opacity="1" transform="matrix(1.00038 0 0 1 159.433 5.90686)"/><text fill="#000000" fill-opacity="1" font-family="Arial,Arial_MSFontService,sans-serif" font-style="normal" font-variant="normal" font-weight="400" font-stretch="normal" font-size="12" text-anchor="start" direction="ltr" writing-mode="lr-tb" unicode-bidi="normal" text-decoration="none" transform="matrix(0.590909 0 0 0.590686 165.342 8)">domain</text><text fill="#000000" fill-opacity="1" font-family="Arial,Arial_MSFontService,sans-serif" font-style="normal" font-variant="normal" font-weight="400" font-stretch="normal" font-size="12" text-anchor="start" direction="ltr" writing-mode="lr-tb" unicode-bidi="normal" text-decoration="none" transform="matrix(0.590909 0 0 0.590686 164.751 33)">Enterprise ATT&amp;CK v15</text><path d="M145.646 0C147.277 -5.24635e-16 148.599 1.3223 148.599 2.95343L148.599 47.8456C148.599 49.4767 147.277 50.799 145.646 50.799L2.95344 50.799C1.3223 50.799 4.22492e-06 49.4767 4.22492e-06 47.8456L4.22492e-06 2.95343C4.22492e-06 1.3223 1.3223 -5.24635e-16 2.95344 -5.24635e-16Z" stroke="#000000" stroke-width="0.590686" stroke-linecap="butt" stroke-linejoin="miter" stroke-miterlimit="4" stroke-opacity="1" fill="#FFFFFF" fill-rule="nonzero" fill-opacity="1" transform="matrix(1.00038 0 0 1 315.912 5.90686)"/><path d="M33.2861-5.90686C34.9173-5.90686 36.2395-4.58457 36.2395-2.95343L36.2395 1.77206C36.2395 3.40319 34.9173 4.72549 33.2861 4.72549L7.67892 4.72549C6.04779 4.72549 4.72549 3.40319 4.72549 1.77206L4.72549-2.95343C4.72549-4.58457 6.04779-5.90686 7.67892-5.90686Z" fill="#FFFFFF" fill-rule="nonzero" fill-opacity="1" transform="matrix(1.00038 0 0 1 315.912 5.90686)"/><text fill="#000000" fill-opacity="1" font-family="Arial,Arial_MSFontService,sans-serif" font-style="normal" font-variant="normal" font-weight="400" font-stretch="normal" font-size="12" text-anchor="start" direction="ltr" writing-mode="lr-tb" unicode-bidi="normal" text-decoration="none" transform="matrix(0.590909 0 0 0.590686 321.821 8)">platforms</text><text fill="#000000" fill-opacity="1" font-family="Arial,Arial_MSFontService,sans-serif" font-style="normal" font-variant="normal" font-weight="400" font-stretch="normal" font-size="12" text-anchor="start" direction="ltr" writing-mode="lr-tb" unicode-bidi="normal" text-decoration="none" transform="matrix(0.590909 0 0 0.590686 321.23 33)">Azure AD</text><path d="M145.646 0C147.277 -5.24635e-16 148.599 1.3223 148.599 2.95343L148.599 47.8456C148.599 49.4767 147.277 50.799 145.646 50.799L2.95344 50.799C1.3223 50.799 4.22492e-06 49.4767 4.22492e-06 47.8456L4.22492e-06 2.95343C4.22492e-06 1.3223 1.3223 -5.24635e-16 2.95344 -5.24635e-16Z" stroke="#000000" stroke-width="0.590686" stroke-linecap="butt" stroke-linejoin="miter" stroke-miterlimit="4" stroke-opacity="1" fill="#FFFFFF" fill-rule="nonzero" fill-opacity="1" transform="matrix(1.00038 0 0 1 472.39 5.90686)"/><path d="M25.4226-5.90686C27.0537-5.90686 28.376-4.58457 28.376-2.95343L28.376 1.77206C28.376 3.40319 27.0537 4.72549 25.4226 4.72549L7.67892 4.72549C6.04779 4.72549 4.72549 3.40319 4.72549 1.77206L4.72549-2.95343C4.72549-4.58457 6.04779-5.90686 7.67892-5.90686Z" fill="#FFFFFF" fill-rule="nonzero" fill-opacity="1" transform="matrix(1.00038 0 0 1 472.39 5.90686)"/><text fill="#000000" fill-opacity="1" font-family="Arial,Arial_MSFontService,sans-serif" font-style="normal" font-variant="normal" font-weight="400" font-stretch="normal" font-size="12" text-anchor="start" direction="ltr" writing-mode="lr-tb" unicode-bidi="normal" text-decoration="none" transform="matrix(0.590909 0 0 0.590686 478.3 8)">legend</text><path d="M0 0 23.782 0 23.782 8.86029 2.92026e-07 8.86029Z" fill="#D6E6F7" fill-rule="nonzero" fill-opacity="1" transform="matrix(1.00038 0 0 1 475.345 11.2793)"/><text fill="#000000" fill-opacity="1" font-family="Arial,Arial_MSFontService,sans-serif" font-style="normal" font-variant="normal" font-weight="400" font-stretch="normal" font-size="12" text-anchor="start" direction="ltr" writing-mode="lr-tb" unicode-bidi="normal" text-decoration="none" transform="matrix(0.590909 0 0 0.590686 482.218 26)">0.0</text><path d="M0 0 23.782 0 23.782 8.86029 2.92026e-07 8.86029Z" fill="#9ABFF9" fill-rule="nonzero" fill-opacity="1" transform="matrix(1.00038 0 0 1 499.136 11.2793)"/><text fill="#000000" fill-opacity="1" font-family="Arial,Arial_MSFontService,sans-serif" font-style="normal" font-variant="normal" font-weight="400" font-stretch="normal" font-size="12" text-anchor="start" direction="ltr" writing-mode="lr-tb" unicode-bidi="normal" text-decoration="none" transform="matrix(0.590909 0 0 0.590686 506.009 26)">3.0</text><path d="M0 0 23.782 0 23.782 8.86029 2.92026e-07 8.86029Z" fill="#5F98FB" fill-rule="nonzero" fill-opacity="1" transform="matrix(1.00038 0 0 1 522.927 11.2793)"/><text fill="#000000" fill-opacity="1" font-family="Arial,Arial_MSFontService,sans-serif" font-style="normal" font-variant="normal" font-weight="400" font-stretch="normal" font-size="12" text-anchor="start" direction="ltr" writing-mode="lr-tb" unicode-bidi="normal" text-decoration="none" transform="matrix(0.590909 0 0 0.590686 529.8 26)">6.0</text><path d="M0 0 23.782 0 23.782 8.86029 2.92026e-07 8.86029Z" fill="#3476FB" fill-rule="nonzero" fill-opacity="1" transform="matrix(1.00038 0 0 1 546.718 11.2793)"/><text fill="#000000" fill-opacity="1" font-family="Arial,Arial_MSFontService,sans-serif" font-style="normal" font-variant="normal" font-weight="400" font-stretch="normal" font-size="12" text-anchor="start" direction="ltr" writing-mode="lr-tb" unicode-bidi="normal" text-decoration="none" transform="matrix(0.590909 0 0 0.590686 553.591 26)">9.0</text><path d="M0 0 23.782 0 23.782 8.86029 2.92026e-07 8.86029Z" fill="#1A59FA" fill-rule="nonzero" fill-opacity="1" transform="matrix(1.00038 0 0 1 570.509 11.2793)"/><text fill="#000000" fill-opacity="1" font-family="Arial,Arial_MSFontService,sans-serif" font-style="normal" font-variant="normal" font-weight="400" font-stretch="normal" font-size="12" text-anchor="start" direction="ltr" writing-mode="lr-tb" unicode-bidi="normal" text-decoration="none" transform="matrix(0.590909 0 0 0.590686 578.563 26)">12</text><path d="M0 0 23.782 0 23.782 8.86029 2.92026e-07 8.86029Z" fill="#003CF9" fill-rule="nonzero" fill-opacity="1" transform="matrix(1.00038 0 0 1 594.3 11.2793)"/><text fill="#000000" fill-opacity="1" font-family="Arial,Arial_MSFontService,sans-serif" font-style="normal" font-variant="normal" font-weight="400" font-stretch="normal" font-size="12" text-anchor="start" direction="ltr" writing-mode="lr-tb" unicode-bidi="normal" text-decoration="none" transform="matrix(0.590909 0 0 0.590686 602.354 26)">15</text><path d="M0 0 77.2322 0 77.2322 46.5986 0 46.5986Z" stroke="#6B7279" stroke-width="0.590686" stroke-linecap="butt" stroke-linejoin="miter" stroke-miterlimit="4" stroke-opacity="1" fill="#72A5FA" fill-rule="nonzero" fill-opacity="1" transform="matrix(1.00038 0 0 1 2.95455 106.849)"/><text fill="#000000" fill-opacity="1" font-family="Arial,Arial_MSFontService,sans-serif" font-style="normal" font-variant="normal" font-weight="400" font-stretch="normal" font-size="12" text-anchor="start" direction="ltr" writing-mode="lr-tb" unicode-bidi="normal" text-decoration="none" transform="matrix(0.590909 0 0 0.590686 5.31818 132)">Valid Accounts</text><text fill="#000000" fill-opacity="1" font-family="Arial,Arial_MSFontService,sans-serif" font-style="normal" font-variant="normal" font-weight="700" font-stretch="normal" font-size="12" text-anchor="start" direction="ltr" writing-mode="lr-tb" unicode-bidi="normal" text-decoration="none" transform="matrix(0.590909 0 0 0.590686 19.1307 86)">Initial Access</text><path d="M0 0 77.2322 0 77.2322 46.5986 0 46.5986Z" stroke="#6B7279" stroke-width="0.590686" stroke-linecap="butt" stroke-linejoin="miter" stroke-miterlimit="4" stroke-opacity="1" fill="#FFFFFF" fill-rule="nonzero" fill-opacity="1" transform="matrix(1.00038 0 0 1 80.2159 106.849)"/><text fill="#000000" fill-opacity="1" font-family="Arial,Arial_MSFontService,sans-serif" font-style="normal" font-variant="normal" font-weight="400" font-stretch="normal" font-size="12" text-anchor="start" direction="ltr" writing-mode="lr-tb" unicode-bidi="normal" text-decoration="none" transform="matrix(0.590909 0 0 0.590686 82.5795 124)">Command</text><text fill="#000000" fill-opacity="1" font-family="Arial,Arial_MSFontService,sans-serif" font-style="normal" font-variant="normal" font-weight="400" font-stretch="normal" font-size="12" text-anchor="start" direction="ltr" writing-mode="lr-tb" unicode-bidi="normal" text-decoration="none" transform="matrix(0.590909 0 0 0.590686 82.5795 132)">and Scripting</text><text fill="#000000" fill-opacity="1" font-family="Arial,Arial_MSFontService,sans-serif" font-style="normal" font-variant="normal" font-weight="400" font-stretch="normal" font-size="12" text-anchor="start" direction="ltr" writing-mode="lr-tb" unicode-bidi="normal" text-decoration="none" transform="matrix(0.590909 0 0 0.590686 82.5795 141)">Interpreter</text><text fill="#000000" fill-opacity="1" font-family="Arial,Arial_MSFontService,sans-serif" font-style="normal" font-variant="normal" font-weight="700" font-stretch="normal" font-size="12" text-anchor="start" direction="ltr" writing-mode="lr-tb" unicode-bidi="normal" text-decoration="none" transform="matrix(0.590909 0 0 0.590686 102.006 86)">Execution</text><path d="M0 0 77.2322 0 77.2322 46.5986 0 46.5986Z" stroke="#6B7279" stroke-width="0.590686" stroke-linecap="butt" stroke-linejoin="miter" stroke-miterlimit="4" stroke-opacity="1" fill="#99BEF9" fill-rule="nonzero" fill-opacity="1" transform="matrix(1.00038 0 0 1 157.477 106.849)"/><text fill="#000000" fill-opacity="1" font-family="Arial,Arial_MSFontService,sans-serif" font-style="normal" font-variant="normal" font-weight="400" font-stretch="normal" font-size="12" text-anchor="start" direction="ltr" writing-mode="lr-tb" unicode-bidi="normal" text-decoration="none" transform="matrix(0.590909 0 0 0.590686 159.841 128)">Account</text><text fill="#000000" fill-opacity="1" font-family="Arial,Arial_MSFontService,sans-serif" font-style="normal" font-variant="normal" font-weight="400" font-stretch="normal" font-size="12" text-anchor="start" direction="ltr" writing-mode="lr-tb" unicode-bidi="normal" text-decoration="none" transform="matrix(0.590909 0 0 0.590686 159.841 136)">Manipulation</text><path d="M0 0 77.2322 0 77.2322 46.5986 0 46.5986Z" stroke="#6B7279" stroke-width="0.590686" stroke-linecap="butt" stroke-linejoin="miter" stroke-miterlimit="4" stroke-opacity="1" fill="#FFFFFF" fill-rule="nonzero" fill-opacity="1" transform="matrix(1.00038 0 0 1 157.477 153.447)"/><text fill="#000000" fill-opacity="1" font-family="Arial,Arial_MSFontService,sans-serif" font-style="normal" font-variant="normal" font-weight="400" font-stretch="normal" font-size="12" text-anchor="start" direction="ltr" writing-mode="lr-tb" unicode-bidi="normal" text-decoration="none" transform="matrix(0.590909 0 0 0.590686 159.841 179)">Create Account</text><path d="M0 0 77.2322 0 77.2322 46.5986 0 46.5986Z" stroke="#6B7279" stroke-width="0.590686" stroke-linecap="butt" stroke-linejoin="miter" stroke-miterlimit="4" stroke-opacity="1" fill="#C1D8F8" fill-rule="nonzero" fill-opacity="1" transform="matrix(1.00038 0 0 1 157.477 200.046)"/><text fill="#000000" fill-opacity="1" font-family="Arial,Arial_MSFontService,sans-serif" font-style="normal" font-variant="normal" font-weight="400" font-stretch="normal" font-size="12" text-anchor="start" direction="ltr" writing-mode="lr-tb" unicode-bidi="normal" text-decoration="none" transform="matrix(0.590909 0 0 0.590686 159.841 217)">Modify</text><text fill="#000000" fill-opacity="1" font-family="Arial,Arial_MSFontService,sans-serif" font-style="normal" font-variant="normal" font-weight="400" font-stretch="normal" font-size="12" text-anchor="start" direction="ltr" writing-mode="lr-tb" unicode-bidi="normal" text-decoration="none" transform="matrix(0.590909 0 0 0.590686 159.841 225)">Authentication</text><text fill="#000000" fill-opacity="1" font-family="Arial,Arial_MSFontService,sans-serif" font-style="normal" font-variant="normal" font-weight="400" font-stretch="normal" font-size="12" text-anchor="start" direction="ltr" writing-mode="lr-tb" unicode-bidi="normal" text-decoration="none" transform="matrix(0.590909 0 0 0.590686 159.841 234)">Process</text><path d="M0 0 77.2322 0 77.2322 46.5986 0 46.5986Z" stroke="#6B7279" stroke-width="0.590686" stroke-linecap="butt" stroke-linejoin="miter" stroke-miterlimit="4" stroke-opacity="1" fill="#72A5FA" fill-rule="nonzero" fill-opacity="1" transform="matrix(1.00038 0 0 1 157.477 246.645)"/><text fill="#000000" fill-opacity="1" font-family="Arial,Arial_MSFontService,sans-serif" font-style="normal" font-variant="normal" font-weight="400" font-stretch="normal" font-size="12" text-anchor="start" direction="ltr" writing-mode="lr-tb" unicode-bidi="normal" text-decoration="none" transform="matrix(0.590909 0 0 0.590686 159.841 272)">Valid Accounts</text><text fill="#000000" fill-opacity="1" font-family="Arial,Arial_MSFontService,sans-serif" font-style="normal" font-variant="normal" font-weight="700" font-stretch="normal" font-size="12" text-anchor="start" direction="ltr" writing-mode="lr-tb" unicode-bidi="normal" text-decoration="none" transform="matrix(0.590909 0 0 0.590686 176.312 86)">Persistence</text><path d="M0 0 77.2322 0 77.2322 46.5986 0 46.5986Z" stroke="#6B7279" stroke-width="0.590686" stroke-linecap="butt" stroke-linejoin="miter" stroke-miterlimit="4" stroke-opacity="1" fill="#FFFFFF" fill-rule="nonzero" fill-opacity="1" transform="matrix(1.00038 0 0 1 234.739 106.849)"/><text fill="#000000" fill-opacity="1" font-family="Arial,Arial_MSFontService,sans-serif" font-style="normal" font-variant="normal" font-weight="400" font-stretch="normal" font-size="12" text-anchor="start" direction="ltr" writing-mode="lr-tb" unicode-bidi="normal" text-decoration="none" transform="matrix(0.590909 0 0 0.590686 237.102 119)">Abuse</text><text fill="#000000" fill-opacity="1" font-family="Arial,Arial_MSFontService,sans-serif" font-style="normal" font-variant="normal" font-weight="400" font-stretch="normal" font-size="12" text-anchor="start" direction="ltr" writing-mode="lr-tb" unicode-bidi="normal" text-decoration="none" transform="matrix(0.590909 0 0 0.590686 237.102 128)">Elevation</text><text fill="#000000" fill-opacity="1" font-family="Arial,Arial_MSFontService,sans-serif" font-style="normal" font-variant="normal" font-weight="400" font-stretch="normal" font-size="12" text-anchor="start" direction="ltr" writing-mode="lr-tb" unicode-bidi="normal" text-decoration="none" transform="matrix(0.590909 0 0 0.590686 237.102 137)">Control</text><text fill="#000000" fill-opacity="1" font-family="Arial,Arial_MSFontService,sans-serif" font-style="normal" font-variant="normal" font-weight="400" font-stretch="normal" font-size="12" text-anchor="start" direction="ltr" writing-mode="lr-tb" unicode-bidi="normal" text-decoration="none" transform="matrix(0.590909 0 0 0.590686 237.102 145)">Mechanism</text><path d="M0 0 77.2322 0 77.2322 46.5986 0 46.5986Z" stroke="#6B7279" stroke-width="0.590686" stroke-linecap="butt" stroke-linejoin="miter" stroke-miterlimit="4" stroke-opacity="1" fill="#99BEF9" fill-rule="nonzero" fill-opacity="1" transform="matrix(1.00038 0 0 1 234.739 153.447)"/><text fill="#000000" fill-opacity="1" font-family="Arial,Arial_MSFontService,sans-serif" font-style="normal" font-variant="normal" font-weight="400" font-stretch="normal" font-size="12" text-anchor="start" direction="ltr" writing-mode="lr-tb" unicode-bidi="normal" text-decoration="none" transform="matrix(0.590909 0 0 0.590686 237.102 175)">Account</text><text fill="#000000" fill-opacity="1" font-family="Arial,Arial_MSFontService,sans-serif" font-style="normal" font-variant="normal" font-weight="400" font-stretch="normal" font-size="12" text-anchor="start" direction="ltr" writing-mode="lr-tb" unicode-bidi="normal" text-decoration="none" transform="matrix(0.590909 0 0 0.590686 237.102 183)">Manipulation</text><path d="M0 0 77.2322 0 77.2322 46.5986 0 46.5986Z" stroke="#6B7279" stroke-width="0.590686" stroke-linecap="butt" stroke-linejoin="miter" stroke-miterlimit="4" stroke-opacity="1" fill="#FFFFFF" fill-rule="nonzero" fill-opacity="1" transform="matrix(1.00038 0 0 1 234.739 200.046)"/><text fill="#000000" fill-opacity="1" font-family="Arial,Arial_MSFontService,sans-serif" font-style="normal" font-variant="normal" font-weight="400" font-stretch="normal" font-size="12" text-anchor="start" direction="ltr" writing-mode="lr-tb" unicode-bidi="normal" text-decoration="none" transform="matrix(0.590909 0 0 0.590686 237.102 217)">Domain or</text><text fill="#000000" fill-opacity="1" font-family="Arial,Arial_MSFontService,sans-serif" font-style="normal" font-variant="normal" font-weight="400" font-stretch="normal" font-size="12" text-anchor="start" direction="ltr" writing-mode="lr-tb" unicode-bidi="normal" text-decoration="none" transform="matrix(0.590909 0 0 0.590686 237.102 225)">Tenant Policy</text><text fill="#000000" fill-opacity="1" font-family="Arial,Arial_MSFontService,sans-serif" font-style="normal" font-variant="normal" font-weight="400" font-stretch="normal" font-size="12" text-anchor="start" direction="ltr" writing-mode="lr-tb" unicode-bidi="normal" text-decoration="none" transform="matrix(0.590909 0 0 0.590686 237.102 234)">Modification</text><path d="M0 0 77.2322 0 77.2322 46.5986 0 46.5986Z" stroke="#6B7279" stroke-width="0.590686" stroke-linecap="butt" stroke-linejoin="miter" stroke-miterlimit="4" stroke-opacity="1" fill="#72A5FA" fill-rule="nonzero" fill-opacity="1" transform="matrix(1.00038 0 0 1 234.739 246.645)"/><text fill="#000000" fill-opacity="1" font-family="Arial,Arial_MSFontService,sans-serif" font-style="normal" font-variant="normal" font-weight="400" font-stretch="normal" font-size="12" text-anchor="start" direction="ltr" writing-mode="lr-tb" unicode-bidi="normal" text-decoration="none" transform="matrix(0.590909 0 0 0.590686 237.102 272)">Valid Accounts</text><text fill="#000000" fill-opacity="1" font-family="Arial,Arial_MSFontService,sans-serif" font-style="normal" font-variant="normal" font-weight="700" font-stretch="normal" font-size="12" text-anchor="start" direction="ltr" writing-mode="lr-tb" unicode-bidi="normal" text-decoration="none" transform="matrix(0.590909 0 0 0.590686 258.597 81)">Privilege</text><text fill="#000000" fill-opacity="1" font-family="Arial,Arial_MSFontService,sans-serif" font-style="normal" font-variant="normal" font-weight="700" font-stretch="normal" font-size="12" text-anchor="start" direction="ltr" writing-mode="lr-tb" unicode-bidi="normal" text-decoration="none" transform="matrix(0.590909 0 0 0.590686 255.642 90)">Escalation</text><path d="M0 0 77.2322 0 77.2322 46.5986 0 46.5986Z" stroke="#6B7279" stroke-width="0.590686" stroke-linecap="butt" stroke-linejoin="miter" stroke-miterlimit="4" stroke-opacity="1" fill="#FFFFFF" fill-rule="nonzero" fill-opacity="1" transform="matrix(1.00038 0 0 1 312 106.849)"/><text fill="#000000" fill-opacity="1" font-family="Arial,Arial_MSFontService,sans-serif" font-style="normal" font-variant="normal" font-weight="400" font-stretch="normal" font-size="12" text-anchor="start" direction="ltr" writing-mode="lr-tb" unicode-bidi="normal" text-decoration="none" transform="matrix(0.590909 0 0 0.590686 314.364 119)">Abuse</text><text fill="#000000" fill-opacity="1" font-family="Arial,Arial_MSFontService,sans-serif" font-style="normal" font-variant="normal" font-weight="400" font-stretch="normal" font-size="12" text-anchor="start" direction="ltr" writing-mode="lr-tb" unicode-bidi="normal" text-decoration="none" transform="matrix(0.590909 0 0 0.590686 314.364 128)">Elevation</text><text fill="#000000" fill-opacity="1" font-family="Arial,Arial_MSFontService,sans-serif" font-style="normal" font-variant="normal" font-weight="400" font-stretch="normal" font-size="12" text-anchor="start" direction="ltr" writing-mode="lr-tb" unicode-bidi="normal" text-decoration="none" transform="matrix(0.590909 0 0 0.590686 314.364 137)">Control</text><text fill="#000000" fill-opacity="1" font-family="Arial,Arial_MSFontService,sans-serif" font-style="normal" font-variant="normal" font-weight="400" font-stretch="normal" font-size="12" text-anchor="start" direction="ltr" writing-mode="lr-tb" unicode-bidi="normal" text-decoration="none" transform="matrix(0.590909 0 0 0.590686 314.364 145)">Mechanism</text><path d="M0 0 77.2322 0 77.2322 46.5986 0 46.5986Z" stroke="#6B7279" stroke-width="0.590686" stroke-linecap="butt" stroke-linejoin="miter" stroke-miterlimit="4" stroke-opacity="1" fill="#FFFFFF" fill-rule="nonzero" fill-opacity="1" transform="matrix(1.00038 0 0 1 312 153.447)"/><text fill="#000000" fill-opacity="1" font-family="Arial,Arial_MSFontService,sans-serif" font-style="normal" font-variant="normal" font-weight="400" font-stretch="normal" font-size="12" text-anchor="start" direction="ltr" writing-mode="lr-tb" unicode-bidi="normal" text-decoration="none" transform="matrix(0.590909 0 0 0.590686 314.364 170)">Domain or</text><text fill="#000000" fill-opacity="1" font-family="Arial,Arial_MSFontService,sans-serif" font-style="normal" font-variant="normal" font-weight="400" font-stretch="normal" font-size="12" text-anchor="start" direction="ltr" writing-mode="lr-tb" unicode-bidi="normal" text-decoration="none" transform="matrix(0.590909 0 0 0.590686 314.364 179)">Tenant Policy</text><text fill="#000000" fill-opacity="1" font-family="Arial,Arial_MSFontService,sans-serif" font-style="normal" font-variant="normal" font-weight="400" font-stretch="normal" font-size="12" text-anchor="start" direction="ltr" writing-mode="lr-tb" unicode-bidi="normal" text-decoration="none" transform="matrix(0.590909 0 0 0.590686 314.364 187)">Modification</text><path d="M0 0 77.2322 0 77.2322 46.5986 0 46.5986Z" stroke="#6B7279" stroke-width="0.590686" stroke-linecap="butt" stroke-linejoin="miter" stroke-miterlimit="4" stroke-opacity="1" fill="#C1D8F8" fill-rule="nonzero" fill-opacity="1" transform="matrix(1.00038 0 0 1 312 200.046)"/><text fill="#000000" fill-opacity="1" font-family="Arial,Arial_MSFontService,sans-serif" font-style="normal" font-variant="normal" font-weight="400" font-stretch="normal" font-size="12" text-anchor="start" direction="ltr" writing-mode="lr-tb" unicode-bidi="normal" text-decoration="none" transform="matrix(0.590909 0 0 0.590686 314.364 217)">Modify</text><text fill="#000000" fill-opacity="1" font-family="Arial,Arial_MSFontService,sans-serif" font-style="normal" font-variant="normal" font-weight="400" font-stretch="normal" font-size="12" text-anchor="start" direction="ltr" writing-mode="lr-tb" unicode-bidi="normal" text-decoration="none" transform="matrix(0.590909 0 0 0.590686 314.364 225)">Authentication</text><text fill="#000000" fill-opacity="1" font-family="Arial,Arial_MSFontService,sans-serif" font-style="normal" font-variant="normal" font-weight="400" font-stretch="normal" font-size="12" text-anchor="start" direction="ltr" writing-mode="lr-tb" unicode-bidi="normal" text-decoration="none" transform="matrix(0.590909 0 0 0.590686 314.364 234)">Process</text><path d="M0 0 77.2322 0 77.2322 46.5986 0 46.5986Z" stroke="#6B7279" stroke-width="0.590686" stroke-linecap="butt" stroke-linejoin="miter" stroke-miterlimit="4" stroke-opacity="1" fill="#72A5FA" fill-rule="nonzero" fill-opacity="1" transform="matrix(1.00038 0 0 1 312 246.645)"/><text fill="#000000" fill-opacity="1" font-family="Arial,Arial_MSFontService,sans-serif" font-style="normal" font-variant="normal" font-weight="400" font-stretch="normal" font-size="12" text-anchor="start" direction="ltr" writing-mode="lr-tb" unicode-bidi="normal" text-decoration="none" transform="matrix(0.590909 0 0 0.590686 314.364 272)">Valid Accounts</text><text fill="#000000" fill-opacity="1" font-family="Arial,Arial_MSFontService,sans-serif" font-style="normal" font-variant="normal" font-weight="700" font-stretch="normal" font-size="12" text-anchor="start" direction="ltr" writing-mode="lr-tb" unicode-bidi="normal" text-decoration="none" transform="matrix(0.590909 0 0 0.590686 336.744 81)">Defense</text><text fill="#000000" fill-opacity="1" font-family="Arial,Arial_MSFontService,sans-serif" font-style="normal" font-variant="normal" font-weight="700" font-stretch="normal" font-size="12" text-anchor="start" direction="ltr" writing-mode="lr-tb" unicode-bidi="normal" text-decoration="none" transform="matrix(0.590909 0 0 0.590686 337.04 90)">Evasion</text><path d="M0 0 77.2322 0 77.2322 46.5986 0 46.5986Z" stroke="#6B7279" stroke-width="0.590686" stroke-linecap="butt" stroke-linejoin="miter" stroke-miterlimit="4" stroke-opacity="1" fill="#0845F9" fill-rule="nonzero" fill-opacity="1" transform="matrix(1.00038 0 0 1 389.261 106.849)"/><text fill="#FFFFFF" fill-opacity="1" font-family="Arial,Arial_MSFontService,sans-serif" font-style="normal" font-variant="normal" font-weight="400" font-stretch="normal" font-size="12" text-anchor="start" direction="ltr" writing-mode="lr-tb" unicode-bidi="normal" text-decoration="none" transform="matrix(0.590909 0 0 0.590686 391.625 132)">Brute Force</text><path d="M0 0 77.2322 0 77.2322 46.5986 0 46.5986Z" stroke="#6B7279" stroke-width="0.590686" stroke-linecap="butt" stroke-linejoin="miter" stroke-miterlimit="4" stroke-opacity="1" fill="#FFFFFF" fill-rule="nonzero" fill-opacity="1" transform="matrix(1.00038 0 0 1 389.261 153.447)"/><text fill="#000000" fill-opacity="1" font-family="Arial,Arial_MSFontService,sans-serif" font-style="normal" font-variant="normal" font-weight="400" font-stretch="normal" font-size="12" text-anchor="start" direction="ltr" writing-mode="lr-tb" unicode-bidi="normal" text-decoration="none" transform="matrix(0.590909 0 0 0.590686 391.625 170)">Exploitation</text><text fill="#000000" fill-opacity="1" font-family="Arial,Arial_MSFontService,sans-serif" font-style="normal" font-variant="normal" font-weight="400" font-stretch="normal" font-size="12" text-anchor="start" direction="ltr" writing-mode="lr-tb" unicode-bidi="normal" text-decoration="none" transform="matrix(0.590909 0 0 0.590686 391.625 179)">for Credential</text><text fill="#000000" fill-opacity="1" font-family="Arial,Arial_MSFontService,sans-serif" font-style="normal" font-variant="normal" font-weight="400" font-stretch="normal" font-size="12" text-anchor="start" direction="ltr" writing-mode="lr-tb" unicode-bidi="normal" text-decoration="none" transform="matrix(0.590909 0 0 0.590686 391.625 187)">Access</text><path d="M0 0 77.2322 0 77.2322 46.5986 0 46.5986Z" stroke="#6B7279" stroke-width="0.590686" stroke-linecap="butt" stroke-linejoin="miter" stroke-miterlimit="4" stroke-opacity="1" fill="#FFFFFF" fill-rule="nonzero" fill-opacity="1" transform="matrix(1.00038 0 0 1 389.261 200.046)"/><text fill="#000000" fill-opacity="1" font-family="Arial,Arial_MSFontService,sans-serif" font-style="normal" font-variant="normal" font-weight="400" font-stretch="normal" font-size="12" text-anchor="start" direction="ltr" writing-mode="lr-tb" unicode-bidi="normal" text-decoration="none" transform="matrix(0.590909 0 0 0.590686 391.625 221)">Forge Web</text><text fill="#000000" fill-opacity="1" font-family="Arial,Arial_MSFontService,sans-serif" font-style="normal" font-variant="normal" font-weight="400" font-stretch="normal" font-size="12" text-anchor="start" direction="ltr" writing-mode="lr-tb" unicode-bidi="normal" text-decoration="none" transform="matrix(0.590909 0 0 0.590686 391.625 230)">Credentials</text><path d="M0 0 77.2322 0 77.2322 46.5986 0 46.5986Z" stroke="#6B7279" stroke-width="0.590686" stroke-linecap="butt" stroke-linejoin="miter" stroke-miterlimit="4" stroke-opacity="1" fill="#C1D8F8" fill-rule="nonzero" fill-opacity="1" transform="matrix(1.00038 0 0 1 389.261 246.645)"/><text fill="#000000" fill-opacity="1" font-family="Arial,Arial_MSFontService,sans-serif" font-style="normal" font-variant="normal" font-weight="400" font-stretch="normal" font-size="12" text-anchor="start" direction="ltr" writing-mode="lr-tb" unicode-bidi="normal" text-decoration="none" transform="matrix(0.590909 0 0 0.590686 391.625 263)">Modify</text><text fill="#000000" fill-opacity="1" font-family="Arial,Arial_MSFontService,sans-serif" font-style="normal" font-variant="normal" font-weight="400" font-stretch="normal" font-size="12" text-anchor="start" direction="ltr" writing-mode="lr-tb" unicode-bidi="normal" text-decoration="none" transform="matrix(0.590909 0 0 0.590686 391.625 272)">Authentication</text><text fill="#000000" fill-opacity="1" font-family="Arial,Arial_MSFontService,sans-serif" font-style="normal" font-variant="normal" font-weight="400" font-stretch="normal" font-size="12" text-anchor="start" direction="ltr" writing-mode="lr-tb" unicode-bidi="normal" text-decoration="none" transform="matrix(0.590909 0 0 0.590686 391.625 281)">Process</text><path d="M0 0 77.2322 0 77.2322 46.5986 0 46.5986Z" stroke="#6B7279" stroke-width="0.590686" stroke-linecap="butt" stroke-linejoin="miter" stroke-miterlimit="4" stroke-opacity="1" fill="#FFFFFF" fill-rule="nonzero" fill-opacity="1" transform="matrix(1.00038 0 0 1 389.261 293.243)"/><text fill="#000000" fill-opacity="1" font-family="Arial,Arial_MSFontService,sans-serif" font-style="normal" font-variant="normal" font-weight="400" font-stretch="normal" font-size="12" text-anchor="start" direction="ltr" writing-mode="lr-tb" unicode-bidi="normal" text-decoration="none" transform="matrix(0.590909 0 0 0.590686 391.625 306)">Multi-Factor</text><text fill="#000000" fill-opacity="1" font-family="Arial,Arial_MSFontService,sans-serif" font-style="normal" font-variant="normal" font-weight="400" font-stretch="normal" font-size="12" text-anchor="start" direction="ltr" writing-mode="lr-tb" unicode-bidi="normal" text-decoration="none" transform="matrix(0.590909 0 0 0.590686 391.625 314)">Authentication</text><text fill="#000000" fill-opacity="1" font-family="Arial,Arial_MSFontService,sans-serif" font-style="normal" font-variant="normal" font-weight="400" font-stretch="normal" font-size="12" text-anchor="start" direction="ltr" writing-mode="lr-tb" unicode-bidi="normal" text-decoration="none" transform="matrix(0.590909 0 0 0.590686 391.625 323)">Request</text><text fill="#000000" fill-opacity="1" font-family="Arial,Arial_MSFontService,sans-serif" font-style="normal" font-variant="normal" font-weight="400" font-stretch="normal" font-size="12" text-anchor="start" direction="ltr" writing-mode="lr-tb" unicode-bidi="normal" text-decoration="none" transform="matrix(0.590909 0 0 0.590686 391.625 332)">Generation</text><path d="M0 0 77.2322 0 77.2322 46.5986 0 46.5986Z" stroke="#6B7279" stroke-width="0.590686" stroke-linecap="butt" stroke-linejoin="miter" stroke-miterlimit="4" stroke-opacity="1" fill="#72A5FA" fill-rule="nonzero" fill-opacity="1" transform="matrix(1.00038 0 0 1 389.261 339.841)"/><text fill="#000000" fill-opacity="1" font-family="Arial,Arial_MSFontService,sans-serif" font-style="normal" font-variant="normal" font-weight="400" font-stretch="normal" font-size="12" text-anchor="start" direction="ltr" writing-mode="lr-tb" unicode-bidi="normal" text-decoration="none" transform="matrix(0.590909 0 0 0.590686 391.625 357)">Steal</text><text fill="#000000" fill-opacity="1" font-family="Arial,Arial_MSFontService,sans-serif" font-style="normal" font-variant="normal" font-weight="400" font-stretch="normal" font-size="12" text-anchor="start" direction="ltr" writing-mode="lr-tb" unicode-bidi="normal" text-decoration="none" transform="matrix(0.590909 0 0 0.590686 391.625 365)">Application</text><text fill="#000000" fill-opacity="1" font-family="Arial,Arial_MSFontService,sans-serif" font-style="normal" font-variant="normal" font-weight="400" font-stretch="normal" font-size="12" text-anchor="start" direction="ltr" writing-mode="lr-tb" unicode-bidi="normal" text-decoration="none" transform="matrix(0.590909 0 0 0.590686 391.625 374)">Access Token</text><path d="M0 0 77.2322 0 77.2322 46.5986 0 46.5986Z" stroke="#6B7279" stroke-width="0.590686" stroke-linecap="butt" stroke-linejoin="miter" stroke-miterlimit="4" stroke-opacity="1" fill="#FFFFFF" fill-rule="nonzero" fill-opacity="1" transform="matrix(1.00038 0 0 1 389.261 386.44)"/><text fill="#000000" fill-opacity="1" font-family="Arial,Arial_MSFontService,sans-serif" font-style="normal" font-variant="normal" font-weight="400" font-stretch="normal" font-size="12" text-anchor="start" direction="ltr" writing-mode="lr-tb" unicode-bidi="normal" text-decoration="none" transform="matrix(0.590909 0 0 0.590686 391.625 403)">Steal or Forge</text><text fill="#000000" fill-opacity="1" font-family="Arial,Arial_MSFontService,sans-serif" font-style="normal" font-variant="normal" font-weight="400" font-stretch="normal" font-size="12" text-anchor="start" direction="ltr" writing-mode="lr-tb" unicode-bidi="normal" text-decoration="none" transform="matrix(0.590909 0 0 0.590686 391.625 412)">Authentication</text><text fill="#000000" fill-opacity="1" font-family="Arial,Arial_MSFontService,sans-serif" font-style="normal" font-variant="normal" font-weight="400" font-stretch="normal" font-size="12" text-anchor="start" direction="ltr" writing-mode="lr-tb" unicode-bidi="normal" text-decoration="none" transform="matrix(0.590909 0 0 0.590686 391.625 420)">Certificates</text><path d="M0 0 77.2322 0 77.2322 46.5986 0 46.5986Z" stroke="#6B7279" stroke-width="0.590686" stroke-linecap="butt" stroke-linejoin="miter" stroke-miterlimit="4" stroke-opacity="1" fill="#C1D8F8" fill-rule="nonzero" fill-opacity="1" transform="matrix(1.00038 0 0 1 389.261 433.039)"/><text fill="#000000" fill-opacity="1" font-family="Arial,Arial_MSFontService,sans-serif" font-style="normal" font-variant="normal" font-weight="400" font-stretch="normal" font-size="12" text-anchor="start" direction="ltr" writing-mode="lr-tb" unicode-bidi="normal" text-decoration="none" transform="matrix(0.590909 0 0 0.590686 391.625 454)">Unsecured</text><text fill="#000000" fill-opacity="1" font-family="Arial,Arial_MSFontService,sans-serif" font-style="normal" font-variant="normal" font-weight="400" font-stretch="normal" font-size="12" text-anchor="start" direction="ltr" writing-mode="lr-tb" unicode-bidi="normal" text-decoration="none" transform="matrix(0.590909 0 0 0.590686 391.625 463)">Credentials</text><text fill="#000000" fill-opacity="1" font-family="Arial,Arial_MSFontService,sans-serif" font-style="normal" font-variant="normal" font-weight="700" font-stretch="normal" font-size="12" text-anchor="start" direction="ltr" writing-mode="lr-tb" unicode-bidi="normal" text-decoration="none" transform="matrix(0.590909 0 0 0.590686 410.46 81)">Credential</text><text fill="#000000" fill-opacity="1" font-family="Arial,Arial_MSFontService,sans-serif" font-style="normal" font-variant="normal" font-weight="700" font-stretch="normal" font-size="12" text-anchor="start" direction="ltr" writing-mode="lr-tb" unicode-bidi="normal" text-decoration="none" transform="matrix(0.590909 0 0 0.590686 415.483 90)">Access</text><path d="M0 0 77.2322 0 77.2322 46.5986 0 46.5986Z" stroke="#6B7279" stroke-width="0.590686" stroke-linecap="butt" stroke-linejoin="miter" stroke-miterlimit="4" stroke-opacity="1" fill="#C1D8F8" fill-rule="nonzero" fill-opacity="1" transform="matrix(1.00038 0 0 1 466.523 106.849)"/><text fill="#000000" fill-opacity="1" font-family="Arial,Arial_MSFontService,sans-serif" font-style="normal" font-variant="normal" font-weight="400" font-stretch="normal" font-size="12" text-anchor="start" direction="ltr" writing-mode="lr-tb" unicode-bidi="normal" text-decoration="none" transform="matrix(0.590909 0 0 0.590686 468.886 128)">Account</text><text fill="#000000" fill-opacity="1" font-family="Arial,Arial_MSFontService,sans-serif" font-style="normal" font-variant="normal" font-weight="400" font-stretch="normal" font-size="12" text-anchor="start" direction="ltr" writing-mode="lr-tb" unicode-bidi="normal" text-decoration="none" transform="matrix(0.590909 0 0 0.590686 468.886 136)">Discovery</text><path d="M0 0 77.2322 0 77.2322 46.5986 0 46.5986Z" stroke="#6B7279" stroke-width="0.590686" stroke-linecap="butt" stroke-linejoin="miter" stroke-miterlimit="4" stroke-opacity="1" fill="#FFFFFF" fill-rule="nonzero" fill-opacity="1" transform="matrix(1.00038 0 0 1 466.523 153.447)"/><text fill="#000000" fill-opacity="1" font-family="Arial,Arial_MSFontService,sans-serif" font-style="normal" font-variant="normal" font-weight="400" font-stretch="normal" font-size="12" text-anchor="start" direction="ltr" writing-mode="lr-tb" unicode-bidi="normal" text-decoration="none" transform="matrix(0.590909 0 0 0.590686 468.886 175)">Cloud Service</text><text fill="#000000" fill-opacity="1" font-family="Arial,Arial_MSFontService,sans-serif" font-style="normal" font-variant="normal" font-weight="400" font-stretch="normal" font-size="12" text-anchor="start" direction="ltr" writing-mode="lr-tb" unicode-bidi="normal" text-decoration="none" transform="matrix(0.590909 0 0 0.590686 468.886 183)">Dashboard</text><path d="M0 0 77.2322 0 77.2322 46.5986 0 46.5986Z" stroke="#6B7279" stroke-width="0.590686" stroke-linecap="butt" stroke-linejoin="miter" stroke-miterlimit="4" stroke-opacity="1" fill="#99BEF9" fill-rule="nonzero" fill-opacity="1" transform="matrix(1.00038 0 0 1 466.523 200.046)"/><text fill="#000000" fill-opacity="1" font-family="Arial,Arial_MSFontService,sans-serif" font-style="normal" font-variant="normal" font-weight="400" font-stretch="normal" font-size="12" text-anchor="start" direction="ltr" writing-mode="lr-tb" unicode-bidi="normal" text-decoration="none" transform="matrix(0.590909 0 0 0.590686 468.886 221)">Cloud Service</text><text fill="#000000" fill-opacity="1" font-family="Arial,Arial_MSFontService,sans-serif" font-style="normal" font-variant="normal" font-weight="400" font-stretch="normal" font-size="12" text-anchor="start" direction="ltr" writing-mode="lr-tb" unicode-bidi="normal" text-decoration="none" transform="matrix(0.590909 0 0 0.590686 468.886 230)">Discovery</text><path d="M0 0 77.2322 0 77.2322 46.5986 0 46.5986Z" stroke="#6B7279" stroke-width="0.590686" stroke-linecap="butt" stroke-linejoin="miter" stroke-miterlimit="4" stroke-opacity="1" fill="#FFFFFF" fill-rule="nonzero" fill-opacity="1" transform="matrix(1.00038 0 0 1 466.523 246.645)"/><text fill="#000000" fill-opacity="1" font-family="Arial,Arial_MSFontService,sans-serif" font-style="normal" font-variant="normal" font-weight="400" font-stretch="normal" font-size="12" text-anchor="start" direction="ltr" writing-mode="lr-tb" unicode-bidi="normal" text-decoration="none" transform="matrix(0.590909 0 0 0.590686 468.886 263)">Permission</text><text fill="#000000" fill-opacity="1" font-family="Arial,Arial_MSFontService,sans-serif" font-style="normal" font-variant="normal" font-weight="400" font-stretch="normal" font-size="12" text-anchor="start" direction="ltr" writing-mode="lr-tb" unicode-bidi="normal" text-decoration="none" transform="matrix(0.590909 0 0 0.590686 468.886 272)">Groups</text><text fill="#000000" fill-opacity="1" font-family="Arial,Arial_MSFontService,sans-serif" font-style="normal" font-variant="normal" font-weight="400" font-stretch="normal" font-size="12" text-anchor="start" direction="ltr" writing-mode="lr-tb" unicode-bidi="normal" text-decoration="none" transform="matrix(0.590909 0 0 0.590686 468.886 281)">Discovery</text><text fill="#000000" fill-opacity="1" font-family="Arial,Arial_MSFontService,sans-serif" font-style="normal" font-variant="normal" font-weight="700" font-stretch="normal" font-size="12" text-anchor="start" direction="ltr" writing-mode="lr-tb" unicode-bidi="normal" text-decoration="none" transform="matrix(0.590909 0 0 0.590686 488.312 86)">Discovery</text><path d="M0 0 77.2322 0 77.2322 46.5986 0 46.5986Z" stroke="#6B7279" stroke-width="0.590686" stroke-linecap="butt" stroke-linejoin="miter" stroke-miterlimit="4" stroke-opacity="1" fill="#FFFFFF" fill-rule="nonzero" fill-opacity="1" transform="matrix(1.00038 0 0 1 543.784 106.849)"/><text fill="#000000" fill-opacity="1" font-family="Arial,Arial_MSFontService,sans-serif" font-style="normal" font-variant="normal" font-weight="400" font-stretch="normal" font-size="12" text-anchor="start" direction="ltr" writing-mode="lr-tb" unicode-bidi="normal" text-decoration="none" transform="matrix(0.590909 0 0 0.590686 546.148 124)">Endpoint</text><text fill="#000000" fill-opacity="1" font-family="Arial,Arial_MSFontService,sans-serif" font-style="normal" font-variant="normal" font-weight="400" font-stretch="normal" font-size="12" text-anchor="start" direction="ltr" writing-mode="lr-tb" unicode-bidi="normal" text-decoration="none" transform="matrix(0.590909 0 0 0.590686 546.148 132)">Denial</text><text fill="#000000" fill-opacity="1" font-family="Arial,Arial_MSFontService,sans-serif" font-style="normal" font-variant="normal" font-weight="400" font-stretch="normal" font-size="12" text-anchor="start" direction="ltr" writing-mode="lr-tb" unicode-bidi="normal" text-decoration="none" transform="matrix(0.590909 0 0 0.590686 546.148 141)">of Service</text><path d="M0 0 77.2322 0 77.2322 46.5986 0 46.5986Z" stroke="#6B7279" stroke-width="0.590686" stroke-linecap="butt" stroke-linejoin="miter" stroke-miterlimit="4" stroke-opacity="1" fill="#FFFFFF" fill-rule="nonzero" fill-opacity="1" transform="matrix(1.00038 0 0 1 543.784 153.447)"/><text fill="#000000" fill-opacity="1" font-family="Arial,Arial_MSFontService,sans-serif" font-style="normal" font-variant="normal" font-weight="400" font-stretch="normal" font-size="12" text-anchor="start" direction="ltr" writing-mode="lr-tb" unicode-bidi="normal" text-decoration="none" transform="matrix(0.590909 0 0 0.590686 546.148 175)">Network Denial</text><text fill="#000000" fill-opacity="1" font-family="Arial,Arial_MSFontService,sans-serif" font-style="normal" font-variant="normal" font-weight="400" font-stretch="normal" font-size="12" text-anchor="start" direction="ltr" writing-mode="lr-tb" unicode-bidi="normal" text-decoration="none" transform="matrix(0.590909 0 0 0.590686 546.148 183)">of Service</text><text fill="#000000" fill-opacity="1" font-family="Arial,Arial_MSFontService,sans-serif" font-style="normal" font-variant="normal" font-weight="700" font-stretch="normal" font-size="12" text-anchor="start" direction="ltr" writing-mode="lr-tb" unicode-bidi="normal" text-decoration="none" transform="matrix(0.590909 0 0 0.590686 570.892 86)">Impact</text></g></g></svg>